<svg width="46" height="46" viewBox="0 0 46 46" fill="none" xmlns="http://www.w3.org/2000/svg">
<circle cx="23" cy="23" r="23" transform="rotate(-90 23 23)" fill="#0047B1"/>
<path d="M27.6504 19.9706H26.0682V14.9951C26.0682 14.4478 25.6204 14 25.0731 14H21.0927C20.5454 14 20.0976 14.4478 20.0976 14.9951V19.9706H18.5154C17.6297 19.9706 17.1819 21.0453 17.8089 21.6722L22.3764 26.2397C22.7644 26.6278 23.3914 26.6278 23.7794 26.2397L28.3469 21.6722C28.9739 21.0453 28.536 19.9706 27.6504 19.9706ZM16.1172 29.9216C16.1172 30.4689 16.565 30.9167 17.1123 30.9167H29.0535C29.6008 30.9167 30.0486 30.4689 30.0486 29.9216C30.0486 29.3743 29.6008 28.9265 29.0535 28.9265H17.1123C16.565 28.9265 16.1172 29.3743 16.1172 29.9216Z" fill="white"/>
</svg>
