<svg width="28" height="28" viewBox="0 0 28 28" fill="none" xmlns="http://www.w3.org/2000/svg">
<path d="M14 12.8333V18.6667M14 24.5C12.6211 24.5 11.2557 24.2284 9.98182 23.7007C8.70791 23.1731 7.55039 22.3996 6.57538 21.4246C5.60036 20.4496 4.82694 19.2921 4.29927 18.0182C3.77159 16.7443 3.5 15.3789 3.5 14C3.5 12.6211 3.77159 11.2557 4.29927 9.98182C4.82694 8.70791 5.60036 7.55039 6.57538 6.57538C7.55039 5.60036 8.70791 4.82694 9.98182 4.29926C11.2557 3.77159 12.6211 3.5 14 3.5C16.7848 3.5 19.4555 4.60625 21.4246 6.57538C23.3938 8.54451 24.5 11.2152 24.5 14C24.5 16.7848 23.3938 19.4555 21.4246 21.4246C19.4555 23.3938 16.7848 24.5 14 24.5ZM14.0583 9.33333V9.45H13.9417V9.33333H14.0583Z" stroke="white" stroke-width="2.33333" stroke-linecap="round" stroke-linejoin="round"/>
</svg>
