<svg width="25" height="25" viewBox="0 0 25 25" fill="none" xmlns="http://www.w3.org/2000/svg">
<path d="M12.5 11.3333V17.1667M12.5 23C11.1211 23 9.75574 22.7284 8.48182 22.2007C7.20791 21.6731 6.05039 20.8996 5.07538 19.9246C4.10036 18.9496 3.32694 17.7921 2.79927 16.5182C2.27159 15.2443 2 13.8789 2 12.5C2 11.1211 2.27159 9.75574 2.79927 8.48182C3.32694 7.20791 4.10036 6.05039 5.07538 5.07538C6.05039 4.10036 7.20791 3.32694 8.48182 2.79926C9.75574 2.27159 11.1211 2 12.5 2C15.2848 2 17.9555 3.10625 19.9246 5.07538C21.8938 7.04451 23 9.71523 23 12.5C23 15.2848 21.8938 17.9555 19.9246 19.9246C17.9555 21.8938 15.2848 23 12.5 23ZM12.5583 7.83333V7.95H12.4417V7.83333H12.5583Z" stroke="#136EF6" stroke-width="2.33333" stroke-linecap="round" stroke-linejoin="round"/>
</svg>
