<svg width="111" height="33" viewBox="0 0 111 33" fill="none" xmlns="http://www.w3.org/2000/svg">
<path d="M0.846706 32.6146V8.3052H5.24522L5.48026 10.5212C6.19656 9.64826 7.01359 9.0103 7.93134 8.60738C8.87148 8.20447 9.90116 8.00301 11.0204 8.00301C12.7664 8.00301 14.2101 8.40593 15.3517 9.21176C16.4933 10.0176 17.3439 11.1144 17.9036 12.5023C18.4856 13.8677 18.7765 15.401 18.7765 17.1022C18.7765 18.8482 18.4744 20.4151 17.87 21.8029C17.288 23.1684 16.4038 24.254 15.2174 25.0599C14.0311 25.8433 12.5537 26.235 10.7853 26.235C10.0243 26.235 9.30798 26.1455 8.63645 25.9664C7.96492 25.7873 7.37174 25.5523 6.8569 25.2613C6.34206 24.9479 5.90556 24.601 5.54741 24.2204V32.6146H0.846706ZM9.97951 22.0044C11.0316 22.0044 11.8598 21.7694 12.4642 21.2993C13.0685 20.8292 13.4938 20.236 13.7401 19.5197C13.9863 18.7811 14.1094 18.02 14.1094 17.2365C14.1094 16.3859 13.9751 15.5801 13.7065 14.819C13.4379 14.058 12.9902 13.4536 12.3634 13.0059C11.7591 12.5358 10.9308 12.3008 9.87878 12.3008C8.93864 12.3008 8.14399 12.5358 7.49485 13.0059C6.8457 13.4536 6.35325 14.0468 6.01748 14.7855C5.68172 15.5241 5.51384 16.3188 5.51384 17.1694C5.51384 18.02 5.67053 18.8146 5.98391 19.5533C6.31967 20.292 6.81213 20.8852 7.46127 21.3329C8.1328 21.7806 8.97221 22.0044 9.97951 22.0044ZM20.7919 26V8.3052H25.0226L25.3247 10.4205C25.7724 9.74898 26.2761 9.24534 26.8357 8.90957C27.3953 8.55142 27.9773 8.31639 28.5817 8.20447C29.186 8.07016 29.8016 8.00301 30.4284 8.00301C30.7194 8.00301 30.988 8.0142 31.2342 8.03658C31.4804 8.03658 31.6595 8.03658 31.7714 8.03658V12.5694H30.6634C29.6113 12.5694 28.6936 12.7485 27.9101 13.1066C27.1267 13.4648 26.5223 14.0244 26.097 14.7855C25.6941 15.5465 25.4926 16.5202 25.4926 17.7066V26H20.7919ZM40.8979 26.235C39.1072 26.235 37.5403 25.8769 36.1972 25.1606C34.8542 24.4219 33.8133 23.381 33.0746 22.038C32.3359 20.6725 31.9666 19.0609 31.9666 17.203C31.9666 15.3003 32.3359 13.6662 33.0746 12.3008C33.8357 10.913 34.8877 9.84971 36.2308 9.11103C37.5739 8.37235 39.1184 8.00301 40.8644 8.00301C42.6551 8.00301 44.2108 8.38354 45.5315 9.14461C46.8522 9.90567 47.8818 10.9689 48.6205 12.3344C49.3592 13.6998 49.7285 15.3339 49.7285 17.2365C49.7285 19.0944 49.3592 20.7061 48.6205 22.0716C47.9042 23.4146 46.8857 24.4443 45.5651 25.1606C44.2668 25.8769 42.7111 26.235 40.8979 26.235ZM40.8308 21.9372C41.8605 21.9372 42.6887 21.7134 43.3154 21.2657C43.9422 20.818 44.3899 20.236 44.6585 19.5197C44.9495 18.7811 45.095 18.0088 45.095 17.203C45.095 16.3971 44.9495 15.6249 44.6585 14.8862C44.3899 14.1475 43.9422 13.5431 43.3154 13.0731C42.7111 12.5806 41.8828 12.3344 40.8308 12.3344C39.8235 12.3344 39.0065 12.5806 38.3797 13.0731C37.7529 13.5431 37.2941 14.1475 37.0031 14.8862C36.7345 15.6249 36.6001 16.3971 36.6001 17.203C36.6001 18.0312 36.7345 18.8034 37.0031 19.5197C37.2941 20.236 37.7529 20.818 38.3797 21.2657C39.0065 21.7134 39.8235 21.9372 40.8308 21.9372ZM51.0593 26V22.4409L59.7892 12.5023H51.0593V8.3052H65.8329V11.8307L57.0695 21.8029H65.8329V26H51.0593ZM67.8396 26V8.3052H72.5404V26H67.8396ZM70.19 6.52564C69.317 6.52564 68.6119 6.26822 68.0747 5.75338C67.5375 5.21616 67.2688 4.53344 67.2688 3.70522C67.2688 2.83223 67.5487 2.12712 68.1083 1.5899C68.6679 1.05268 69.373 0.784064 70.2236 0.784064C71.007 0.784064 71.6786 1.05268 72.2382 1.5899C72.8202 2.10474 73.1112 2.79865 73.1112 3.67164C73.1112 4.52225 72.8314 5.21616 72.2717 5.75338C71.7345 6.26822 71.0406 6.52564 70.19 6.52564ZM75.2593 26V8.3052H79.6578L79.8928 10.3534C80.3853 9.74898 80.9449 9.27891 81.5716 8.94315C82.2208 8.585 82.8699 8.33877 83.5191 8.20447C84.1906 8.07016 84.795 8.00301 85.3322 8.00301C87.0334 8.00301 88.3541 8.37235 89.2942 9.11103C90.2568 9.84971 90.9395 10.8458 91.3424 12.0993C91.7677 13.3305 91.9804 14.7071 91.9804 16.2292V26H87.2796V16.8336C87.2796 16.2964 87.2349 15.7592 87.1453 15.222C87.0558 14.6847 86.8879 14.1923 86.6417 13.7446C86.4178 13.2969 86.0933 12.9387 85.668 12.6701C85.2427 12.4015 84.6831 12.2672 83.9892 12.2672C83.0938 12.2672 82.3439 12.4911 81.7395 12.9387C81.1351 13.3864 80.6875 13.9908 80.3965 14.7519C80.1055 15.5129 79.96 16.3524 79.96 17.2701V26H75.2593ZM102.673 26.235C100.816 26.235 99.2374 25.8657 97.9391 25.127C96.6408 24.3883 95.6447 23.3475 94.9508 22.0044C94.2569 20.639 93.9099 19.0497 93.9099 17.2365C93.9099 15.401 94.2681 13.8005 94.9844 12.4351C95.7007 11.0473 96.708 9.96164 98.0063 9.17818C99.327 8.39473 100.883 8.00301 102.673 8.00301C104.016 8.00301 105.192 8.22685 106.199 8.67454C107.229 9.12222 108.09 9.74898 108.784 10.5548C109.501 11.3607 110.027 12.3008 110.362 13.3752C110.721 14.4273 110.888 15.5689 110.866 16.8C110.866 17.1134 110.855 17.4156 110.832 17.7066C110.81 17.9976 110.765 18.2886 110.698 18.5796H98.5771C98.6442 19.2511 98.8345 19.8667 99.1479 20.4263C99.4613 20.9859 99.8978 21.4336 100.457 21.7694C101.039 22.0827 101.756 22.2394 102.606 22.2394C103.166 22.2394 103.681 22.1835 104.151 22.0716C104.621 21.9372 105.024 21.7358 105.36 21.4672C105.695 21.1986 105.93 20.8852 106.065 20.527H110.698C110.407 21.8477 109.859 22.9333 109.053 23.784C108.269 24.6346 107.318 25.2613 106.199 25.6642C105.08 26.0448 103.905 26.235 102.673 26.235ZM98.6778 15.2891H106.367C106.344 14.6847 106.188 14.1251 105.897 13.6103C105.628 13.0731 105.214 12.6478 104.654 12.3344C104.117 11.9986 103.423 11.8307 102.573 11.8307C101.722 11.8307 101.006 11.9986 100.424 12.3344C99.8642 12.6701 99.4389 13.1066 99.1479 13.6439C98.8793 14.1587 98.7226 14.7071 98.6778 15.2891Z" fill="#136EF6"/>
</svg>
