<svg width="114" height="34" viewBox="0 0 114 34" fill="none" xmlns="http://www.w3.org/2000/svg">
<path d="M5.64814 10.6891C6.34206 9.83852 7.20385 9.17818 8.23353 8.70811C9.28559 8.21566 10.3377 7.95824 11.3897 7.93585C12.6432 7.91347 13.8072 8.13731 14.8817 8.60738C15.9561 9.05507 16.8515 9.81614 17.5678 10.8906C18.1498 11.674 18.5751 12.5918 18.8437 13.6439C19.1123 14.6959 19.2466 15.8039 19.2466 16.9679C19.2466 18.4229 19.0675 19.7436 18.7094 20.93C18.3736 22.0939 17.7916 23.1012 16.9634 23.9518C16.2695 24.7129 15.4189 25.2949 14.4116 25.6978C13.4043 26.0783 12.397 26.2686 11.3897 26.2686C10.8973 26.2686 10.4048 26.235 9.91236 26.1679C9.4199 26.1231 8.92745 26.0224 8.43499 25.8657C7.94254 25.709 7.45008 25.4852 6.95763 25.1942C6.48755 24.9032 6.03987 24.5114 5.61457 24.019V33.3868H0.880283V8.3052H5.37953L5.64814 10.6891ZM10.0802 12.1665C9.38632 12.1665 8.75956 12.3008 8.19996 12.5694C7.66273 12.8156 7.20385 13.1626 6.82332 13.6103C6.44279 14.058 6.1406 14.5728 5.91675 15.1548C5.7153 15.7368 5.61457 16.3636 5.61457 17.0351C5.59218 18.5348 5.98391 19.7436 6.78974 20.6613C7.61796 21.5567 8.73718 22.0268 10.1474 22.0716C10.9085 22.0716 11.5576 21.9484 12.0948 21.7022C12.6321 21.456 13.0685 21.109 13.4043 20.6613C13.7625 20.2137 14.0311 19.6876 14.2101 19.0832C14.4116 18.4789 14.5123 17.8185 14.5123 17.1022C14.5123 16.4083 14.4116 15.7592 14.2101 15.1548C14.0311 14.5504 13.7513 14.0244 13.3707 13.5767C13.0126 13.129 12.5649 12.7821 12.0277 12.5358C11.4905 12.2896 10.8413 12.1665 10.0802 12.1665ZM25.9181 10.5212C26.6344 9.67064 27.3955 9.03269 28.2013 8.60738C29.0295 8.18208 30.0144 7.96943 31.156 7.96943C31.447 7.96943 31.7268 7.98062 31.9954 8.00301C32.2641 8.02539 32.5103 8.05897 32.7341 8.10374V12.4687C32.2193 12.4687 31.6933 12.4799 31.156 12.5023C30.6412 12.5023 30.1487 12.547 29.6787 12.6366C29.2086 12.7261 28.7497 12.8716 28.302 13.0731C27.8767 13.2521 27.4962 13.5207 27.1604 13.8789C26.6456 14.4609 26.321 15.0876 26.1867 15.7592C26.0748 16.4307 26.0188 17.1918 26.0188 18.0424V26H21.2846V8.3052H25.6495L25.9181 10.5212ZM42.0128 12.1665C40.5578 12.1665 39.4833 12.6366 38.7894 13.5767C38.0955 14.5168 37.7486 15.692 37.7486 17.1022C37.7486 18.5348 38.0955 19.7212 38.7894 20.6613C39.4833 21.6015 40.5578 22.0716 42.0128 22.0716C43.4678 22.0716 44.531 21.6015 45.2025 20.6613C45.8741 19.7212 46.2098 18.5348 46.2098 17.1022C46.2098 15.692 45.8741 14.5168 45.2025 13.5767C44.531 12.6366 43.4678 12.1665 42.0128 12.1665ZM42.0128 26.2686C39.1476 26.2686 36.9427 25.4628 35.3982 23.8511C33.8537 22.2171 33.0814 19.9562 33.0814 17.0687C33.0814 15.6808 33.2829 14.4273 33.6858 13.3081C34.1111 12.1665 34.6931 11.1928 35.4318 10.3869C36.1929 9.5811 37.1218 8.97672 38.2186 8.57381C39.3379 8.1485 40.6026 7.93585 42.0128 7.93585C43.4006 7.93585 44.6429 8.1485 45.7398 8.57381C46.859 8.97672 47.7991 9.5811 48.5602 10.3869C49.3436 11.1928 49.9368 12.1665 50.3397 13.3081C50.765 14.4273 50.9777 15.6808 50.9777 17.0687C50.9777 19.9786 50.1942 22.2394 48.6273 23.8511C47.0828 25.4628 44.878 26.2686 42.0128 26.2686ZM67.0789 11.73L58.4834 21.8701H67.0789V26H52.3053V22.5416L60.8337 12.4015H52.3053V8.3052H67.0789V11.73ZM71.7382 0.0789592C72.6112 0.0789592 73.3163 0.336379 73.8535 0.851218C74.3907 1.36606 74.6593 2.04878 74.6593 2.89938C74.6593 3.79476 74.3907 4.49986 73.8535 5.0147C73.3163 5.50716 72.6112 5.75338 71.7382 5.75338C70.8876 5.75338 70.1825 5.50716 69.6229 5.0147C69.0857 4.49986 68.817 3.79476 68.817 2.89938C68.817 2.04878 69.0857 1.36606 69.6229 0.851218C70.1825 0.336379 70.8876 0.0789592 71.7382 0.0789592ZM74.1221 26H69.3878V8.3052H74.1221V26ZM81.8969 10.5548C83.3295 8.80884 85.0979 7.93585 87.202 7.93585C88.3436 7.93585 89.3509 8.12612 90.2239 8.50665C91.0969 8.88719 91.802 9.41322 92.3392 10.0847C92.9883 10.8682 93.436 11.786 93.6823 12.838C93.9285 13.8677 94.0516 15.0205 94.0516 16.2964V26H89.2837V16.6657C89.2837 16.039 89.2166 15.4458 89.0823 14.8862C88.9704 14.3042 88.7689 13.8117 88.4779 13.4088C88.1869 12.9835 87.7952 12.6701 87.3027 12.4687C86.8327 12.2672 86.2954 12.1665 85.6911 12.1665C84.9524 12.1665 84.3256 12.3232 83.8108 12.6366C83.2959 12.9499 82.893 13.3529 82.602 13.8453C82.311 14.3378 82.1096 14.8862 81.9976 15.4906C81.9081 16.0726 81.8633 16.6657 81.8633 17.2701V26H77.1291V8.3052H81.6619L81.8969 10.5548ZM104.739 22.4073C105.411 22.4073 105.981 22.3066 106.452 22.1051C106.944 21.8813 107.347 21.5231 107.66 21.0307H112.63C112.383 21.9484 112.003 22.7431 111.488 23.4146C110.996 24.0861 110.391 24.6346 109.675 25.0599C108.981 25.4852 108.209 25.7985 107.358 26C106.508 26.1791 105.612 26.2686 104.672 26.2686C101.807 26.2686 99.6355 25.4628 98.1582 23.8511C96.7032 22.2394 95.9757 19.9786 95.9757 17.0687C95.9757 15.748 96.166 14.528 96.5465 13.4088C96.9494 12.2896 97.509 11.3271 98.2253 10.5212C98.9416 9.69302 99.8258 9.05507 100.878 8.60738C101.952 8.1597 103.172 7.93585 104.538 7.93585C106.127 7.93585 107.504 8.21566 108.668 8.77527C109.832 9.33487 110.749 10.1071 111.421 11.092C112.115 12.0546 112.574 13.185 112.797 14.4833C113.044 15.7816 113.044 17.1694 112.797 18.6468H100.71C100.8 19.6988 101.169 20.5942 101.818 21.3329C102.467 22.0492 103.441 22.4073 104.739 22.4073ZM108.399 15.3898C108.399 14.8302 108.298 14.3378 108.097 13.9125C107.895 13.4648 107.627 13.1066 107.291 12.838C106.955 12.547 106.552 12.3344 106.082 12.2001C105.635 12.0658 105.164 11.9986 104.672 11.9986C103.486 12.021 102.557 12.3456 101.885 12.9723C101.236 13.5767 100.855 14.3825 100.744 15.3898H108.399Z" fill="black"/>
</svg>
