<svg width="11" height="12" viewBox="0 0 11 12" fill="none" xmlns="http://www.w3.org/2000/svg">
<path fill-rule="evenodd" clip-rule="evenodd" d="M4.89286 0.699219C4.11258 0.699285 3.34363 0.88594 2.65016 1.24361C1.95669 1.60128 1.35882 2.1196 0.906415 2.75531C0.454013 3.39103 0.160204 4.12571 0.0494999 4.89806C-0.0612041 5.67041 0.0144071 6.45804 0.270025 7.19523C0.525644 7.93242 0.953857 8.59779 1.51894 9.13584C2.08402 9.67389 2.76958 10.069 3.51843 10.2882C4.26728 10.5075 5.0577 10.5444 5.82374 10.3961C6.58979 10.2477 7.30924 9.91829 7.92208 9.43534L10.0245 11.5376C10.133 11.6425 10.2785 11.7005 10.4294 11.6992C10.5803 11.6979 10.7247 11.6373 10.8315 11.5306C10.9382 11.4239 10.9987 11.2795 11.0001 11.1286C11.0014 10.9776 10.9433 10.8322 10.8385 10.7237L8.7361 8.62136C9.30486 7.89985 9.659 7.03279 9.75798 6.11942C9.85696 5.20604 9.69679 4.28325 9.29578 3.45665C8.89478 2.63006 8.26915 1.93305 7.4905 1.4454C6.71184 0.957749 5.81162 0.699157 4.89286 0.699219ZM1.15094 5.59228C1.15094 4.5999 1.54518 3.64817 2.24692 2.94646C2.94867 2.24474 3.90044 1.85053 4.89286 1.85053C5.88528 1.85053 6.83705 2.24474 7.53879 2.94646C8.24054 3.64817 8.63478 4.5999 8.63478 5.59228C8.63478 6.58465 8.24054 7.53638 7.53879 8.23809C6.83705 8.93981 5.88528 9.33402 4.89286 9.33402C3.90044 9.33402 2.94867 8.93981 2.24692 8.23809C1.54518 7.53638 1.15094 6.58465 1.15094 5.59228Z" fill="#9C9C9C"/>
</svg>
